<svg width="291" height="66" viewBox="0 0 291 66" fill="none" xmlns="http://www.w3.org/2000/svg">
<g clip-path="url(#clip0_18_2)">
<path d="M51.7088 66L58.5792 33.6368C58.76 32.7931 58.8504 32.0699 58.8504 31.4672C58.8504 29.7195 57.9464 28.8456 56.1384 28.8456C53.788 28.8456 52.2813 30.4427 51.6184 33.6368L44.748 66H27.2104L34.0808 33.6368C34.2616 32.7931 34.352 32.0699 34.352 31.4672C34.352 29.7195 33.448 28.8456 31.64 28.8456C29.2896 28.8456 27.7829 30.4427 27.12 33.6368L20.2496 66H2.712L13.108 17.0936H30.1032L28.928 22.6984H29.1088C32.6043 18.1181 37.3955 15.828 43.4824 15.828C48.9064 15.828 52.3115 18.1181 53.6976 22.6984C57.0725 18.1181 61.8336 15.828 67.9808 15.828C74.4293 15.828 77.6536 18.7509 77.6536 24.5968C77.6536 25.7419 77.5331 26.9472 77.292 28.2128L69.2464 66H51.7088ZM101.329 49.3664L102.866 42.3152C102.143 42.7371 100.546 43.3699 98.0748 44.2136C95.6642 45.0573 94.1274 47.1365 93.4644 50.4512C93.2836 51.1141 93.1932 51.7168 93.1932 52.2592C93.1932 54.3083 94.0972 55.3328 95.9052 55.3328C98.6775 55.3328 100.485 53.344 101.329 49.3664ZM121.398 29.9304L115.251 58.768C114.708 61.3595 114.739 63.7701 115.341 66H98.8884C98.6474 64.5536 98.7378 62.836 99.1596 60.8472L98.9788 60.7568C96.2066 65.096 91.9276 67.2656 86.142 67.2656C78.91 67.2656 75.294 64.1619 75.294 57.9544C75.294 56.4477 75.505 54.7301 75.9268 52.8016C77.0116 47.7995 78.91 44.0629 81.622 41.592C83.7916 39.7237 86.8652 38.3376 90.8428 37.4336L99.4308 35.5352C101.359 35.1133 102.745 34.5709 103.589 33.908C104.433 33.1848 105.036 32.0397 105.397 30.4728C105.457 30.1112 105.488 29.7496 105.488 29.388C105.488 27.58 104.584 26.676 102.776 26.676C99.9431 26.676 98.1351 28.5443 97.3516 32.2808H81.9836C83.189 26.676 85.6298 22.5477 89.306 19.896C93.0426 17.184 98.346 15.828 105.216 15.828C116.305 15.828 121.85 19.1728 121.85 25.8624C121.85 27.0677 121.699 28.4237 121.398 29.9304ZM144.088 66L150.959 33.6368C151.14 32.7931 151.23 32.0699 151.23 31.4672C151.23 29.7195 150.326 28.8456 148.518 28.8456C146.168 28.8456 144.661 30.4427 143.998 33.6368L137.128 66H119.59L129.986 17.0936H146.981L145.806 22.6984H145.987C149.482 18.1181 154.273 15.828 160.36 15.828C166.809 15.828 170.033 18.7509 170.033 24.5968C170.033 25.7419 169.913 26.9472 169.672 28.2128L161.626 66H144.088ZM191.508 66L192.683 60.3952H192.503C189.007 64.9755 184.216 67.2656 178.129 67.2656C171.68 67.2656 168.456 64.3427 168.456 58.4968C168.456 57.3517 168.577 56.1464 168.818 54.8808L176.863 17.0936H194.401L187.531 49.4568C187.35 50.3005 187.259 51.0237 187.259 51.6264C187.259 53.3741 188.163 54.248 189.971 54.248C192.322 54.248 193.828 52.6509 194.491 49.4568L201.362 17.0936H218.899L208.503 66H191.508ZM240.284 49.3664L241.821 42.3152C241.098 42.7371 239.5 43.3699 237.03 44.2136C234.619 45.0573 233.082 47.1365 232.419 50.4512C232.238 51.1141 232.148 51.7168 232.148 52.2592C232.148 54.3083 233.052 55.3328 234.86 55.3328C237.632 55.3328 239.44 53.344 240.284 49.3664ZM260.353 29.9304L254.206 58.768C253.663 61.3595 253.693 63.7701 254.296 66H237.843C237.602 64.5536 237.692 62.836 238.114 60.8472L237.934 60.7568C235.161 65.096 230.882 67.2656 225.097 67.2656C217.865 67.2656 214.249 64.1619 214.249 57.9544C214.249 56.4477 214.46 54.7301 214.882 52.8016C215.966 47.7995 217.865 44.0629 220.577 41.592C222.746 39.7237 225.82 38.3376 229.798 37.4336L238.386 35.5352C240.314 35.1133 241.7 34.5709 242.544 33.908C243.388 33.1848 243.99 32.0397 244.352 30.4728C244.412 30.1112 244.442 29.7496 244.442 29.388C244.442 27.58 243.538 26.676 241.73 26.676C238.898 26.676 237.09 28.5443 236.306 32.2808H220.938C222.144 26.676 224.584 22.5477 228.261 19.896C231.997 17.184 237.301 15.828 244.171 15.828C255.26 15.828 260.805 19.1728 260.805 25.8624C260.805 27.0677 260.654 28.4237 260.353 29.9304ZM258.997 66L272.738 1.45439H290.275L276.534 66H258.997Z" fill="black"/>
</g>
<defs>
<clipPath id="clip0_18_2">
<rect width="291" height="66" fill="white"/>
</clipPath>
</defs>
</svg>
